<svg width="24" height="24" viewBox="0 0 24 24" fill="none" xmlns="http://www.w3.org/2000/svg">
<g opacity="0.8" clip-path="url(#clip0_1367_94928)">
<path fill-rule="evenodd" clip-rule="evenodd" d="M12 22C17.5228 22 22 17.5228 22 12C22 6.47715 17.5228 2 12 2C6.47715 2 2 6.47715 2 12C2 17.5228 6.47715 22 12 22ZM10.3333 10C10.3333 10.6333 10.9954 10.94 12.3333 11.3333L12.3556 11.3399C13.686 11.7309 15 12.1172 15 14C15 15.3667 13.9864 16.42 12.8371 16.6667L12.9371 18H11.169V16.6667C10.0373 16.3933 9.07073 15.46 9 14H10.3333C10.3982 14.7867 10.7859 15.3333 12 15.3333C13.3026 15.3333 13.6667 14.46 13.6667 14C13.6667 13.38 13.4735 13.0667 12 12.6667C10.3556 12.22 9 11.54 9 10C9 8.71333 10.0255 7.61333 11.169 7.33333V6H12.9371V7.33333C14.169 7.67333 14.9587 8.85333 15 10H13.6667C13.6313 9.16667 13.0491 8.66667 12 8.66667C11.0039 8.66667 10.3333 9.27333 10.3333 10Z" fill="white"/>
</g>
<defs>
<clipPath id="clip0_1367_94928">
<rect width="24" height="24" fill="white"/>
</clipPath>
</defs>
</svg>
