<svg width="24" height="24" viewBox="0 0 24 24" fill="none" xmlns="http://www.w3.org/2000/svg">
<g opacity="0.8" clip-path="url(#clip0_1367_94913)">
<circle cx="8.5" cy="6.5" r="3.5" fill="white" stroke="white" stroke-width="2"/>
<mask id="path-2-inside-1_1367_94913" fill="white">
<path d="M15 11C16.1935 11 17.3381 10.5259 18.182 9.68198C19.0259 8.83807 19.5 7.69347 19.5 6.5C19.5 5.30653 19.0259 4.16193 18.182 3.31802C17.3381 2.47411 16.1935 2 15 2L15 6.5V11Z"/>
</mask>
<path d="M15 11C16.1935 11 17.3381 10.5259 18.182 9.68198C19.0259 8.83807 19.5 7.69347 19.5 6.5C19.5 5.30653 19.0259 4.16193 18.182 3.31802C17.3381 2.47411 16.1935 2 15 2L15 6.5V11Z" fill="white" stroke="white" stroke-width="4" mask="url(#path-2-inside-1_1367_94913)"/>
<rect x="2" y="14" width="13" height="8" fill="white"/>
<rect x="17" y="14" width="5" height="8" fill="white"/>
</g>
<defs>
<clipPath id="clip0_1367_94913">
<rect width="24" height="24" fill="white"/>
</clipPath>
</defs>
</svg>
