<svg width="300" height="90" viewBox="0 0 300 90" fill="none" xmlns="http://www.w3.org/2000/svg">
<g clip-path="url(#clip0_1481_16389)">
<path d="M62.0887 85.918L56.9295 80.1044C56.7938 79.9416 56.7033 79.8233 56.658 79.7493H56.6278V85.918H55.4512V73.4919H56.6278V79.3499H56.658C56.658 79.3499 56.7485 79.2316 56.7938 79.1724C56.839 79.1132 56.8843 79.0541 56.9446 78.9949L61.8775 73.5067H63.3709L57.8799 79.4979L63.733 85.9328H62.0887V85.918Z" fill="white"/>
<path d="M69.2666 81.2724V85.9321H68.0899V81.302L64.1074 73.5061H65.4349L68.3313 79.3197C68.3313 79.3197 68.4067 79.4972 68.4671 79.6304C68.5274 79.7635 68.6028 79.941 68.6782 80.1629H68.7084C68.7386 80.0594 68.7989 79.941 68.8593 79.7931C68.9196 79.6452 69.0101 79.4972 69.1006 79.3197L72.1328 73.5061H73.3848L69.2515 81.2872L69.2666 81.2724Z" fill="white"/>
<path d="M80.119 86.1386C79.1988 86.1386 78.3842 85.9759 77.6601 85.6505C76.936 85.325 76.3025 84.8812 75.8047 84.3043C75.3068 83.7274 74.8995 83.0765 74.628 82.3073C74.3565 81.538 74.2207 80.7244 74.2207 79.8368C74.2207 78.8605 74.3565 77.9729 74.628 77.1741C74.8995 76.3753 75.3068 75.68 75.8197 75.1031C76.3326 74.5262 76.9813 74.0824 77.7506 73.757C78.52 73.4315 79.3798 73.2688 80.3453 73.2688C81.2353 73.2688 82.0499 73.4315 82.7589 73.7422C83.4679 74.0528 84.0864 74.4966 84.5843 75.0439C85.0821 75.5913 85.4743 76.257 85.7307 77.0262C85.9872 77.7954 86.138 78.6238 86.138 79.5114C86.138 80.4581 86.0023 81.3309 85.7458 82.1297C85.4894 82.9286 85.0972 83.6386 84.5843 84.2303C84.0714 84.8221 83.4529 85.2806 82.6986 85.6209C81.9443 85.9611 81.0996 86.1238 80.119 86.1238V86.1386ZM80.2095 74.3339C79.4402 74.3339 78.7614 74.4818 78.173 74.7629C77.5847 75.0439 77.0869 75.4434 76.6796 75.9315C76.2723 76.4197 75.9706 76.9966 75.7594 77.6475C75.5482 78.2984 75.4426 79.0084 75.4426 79.7481C75.4426 80.4581 75.5331 81.1238 75.7141 81.7747C75.8952 82.4256 76.1969 82.9877 76.574 83.4759C76.9511 83.9641 77.4489 84.3635 78.0373 84.6593C78.6256 84.9552 79.3195 85.1031 80.1039 85.1031C80.8884 85.1031 81.5823 84.97 82.1857 84.7037C82.7891 84.4374 83.2869 84.0676 83.6791 83.5795C84.0714 83.0913 84.3881 82.5292 84.5843 81.8783C84.7804 81.2274 84.886 80.5025 84.886 79.7185C84.886 78.9937 84.7955 78.2984 84.6144 77.6475C84.4334 76.9966 84.1619 76.4197 83.7697 75.9315C83.3774 75.4434 82.9098 75.0587 82.3215 74.7629C81.7331 74.467 81.0241 74.3339 80.1945 74.3339H80.2095Z" fill="white"/>
<path d="M88.6713 85.918V73.4919H92.1409C92.6689 73.4919 93.1366 73.5659 93.559 73.699C93.9813 73.8322 94.3434 74.0393 94.63 74.2908C94.9166 74.5422 95.158 74.8381 95.3088 75.1931C95.4597 75.5482 95.5502 75.9328 95.5502 76.3618C95.5502 76.7168 95.5049 77.057 95.3994 77.3677C95.2938 77.6783 95.158 77.9594 94.9619 78.2257C94.7658 78.4919 94.5395 78.699 94.268 78.8914C93.9964 79.0837 93.6796 79.2316 93.3327 79.3351V79.3647C93.7551 79.4091 94.1473 79.5127 94.4942 79.6754C94.8412 79.8381 95.1429 80.0452 95.3843 80.3115C95.6256 80.5777 95.8217 80.8736 95.9575 81.2286C96.0933 81.5837 96.1536 81.9683 96.1536 82.3825C96.1536 82.915 96.0631 83.3884 95.867 83.8322C95.6709 84.276 95.3993 84.6458 95.0524 84.9564C94.7054 85.2671 94.283 85.5186 93.8003 85.6961C93.3176 85.8736 92.7896 85.9624 92.2013 85.9624H88.6562L88.6713 85.918ZM89.848 74.5422V78.9505H91.4923C91.9297 78.9505 92.3069 78.8913 92.6538 78.7878C93.0008 78.6842 93.3025 78.5215 93.5439 78.3144C93.7852 78.1073 93.9813 77.8558 94.1171 77.56C94.2529 77.2641 94.3132 76.9387 94.3132 76.5689C94.3132 75.2227 93.4534 74.5422 91.7487 74.5422H89.8329H89.848ZM89.848 80.0008V84.8677H92.0353C92.9706 84.8677 93.6947 84.6458 94.1925 84.2168C94.6903 83.7878 94.9468 83.1813 94.9468 82.3825C94.9468 80.7848 93.8456 79.986 91.628 79.986H89.848V80.0008Z" fill="white"/>
<path d="M103.935 86.1386C103.015 86.1386 102.201 85.9759 101.477 85.6505C100.752 85.325 100.119 84.8812 99.6211 84.3043C99.1233 83.7274 98.716 83.0765 98.4444 82.3073C98.1729 81.538 98.0371 80.7244 98.0371 79.8368C98.0371 78.8605 98.1729 77.9729 98.4444 77.1741C98.716 76.3753 99.1233 75.68 99.6362 75.1031C100.149 74.5262 100.798 74.0824 101.567 73.757C102.336 73.4315 103.196 73.2688 104.162 73.2688C105.052 73.2688 105.866 73.4315 106.575 73.7422C107.284 74.0528 107.903 74.4966 108.401 75.0439C108.898 75.5913 109.291 76.257 109.547 77.0262C109.804 77.7954 109.954 78.6238 109.954 79.5114C109.954 80.4581 109.819 81.3309 109.562 82.1297C109.306 82.9286 108.914 83.6386 108.401 84.2303C107.888 84.8221 107.269 85.2806 106.515 85.6209C105.761 85.9611 104.916 86.1238 103.935 86.1238V86.1386ZM104.026 74.3339C103.257 74.3339 102.578 74.4818 101.989 74.7629C101.401 75.0439 100.903 75.4434 100.496 75.9315C100.089 76.4197 99.787 76.9966 99.5758 77.6475C99.3646 78.2984 99.259 79.0084 99.259 79.7481C99.259 80.4581 99.3495 81.1238 99.5306 81.7747C99.7116 82.4256 100.013 82.9877 100.39 83.4759C100.768 83.9641 101.265 84.3635 101.854 84.6593C102.442 84.9552 103.136 85.1031 103.92 85.1031C104.705 85.1031 105.399 84.97 106.002 84.7037C106.606 84.4374 107.103 84.0676 107.496 83.5795C107.888 83.0913 108.205 82.5292 108.401 81.8783C108.597 81.2274 108.702 80.5025 108.702 79.7185C108.702 78.9937 108.612 78.2984 108.431 77.6475C108.25 76.9966 107.978 76.4197 107.586 75.9315C107.194 75.4434 106.726 75.0587 106.138 74.7629C105.55 74.467 104.841 74.3339 104.011 74.3339H104.026Z" fill="white"/>
<path d="M122.609 86.1386C121.689 86.1386 120.874 85.9759 120.15 85.6505C119.426 85.325 118.793 84.8812 118.295 84.3043C117.797 83.7274 117.39 83.0765 117.118 82.3073C116.847 81.538 116.711 80.7244 116.711 79.8368C116.711 78.8605 116.847 77.9729 117.118 77.1741C117.39 76.3753 117.797 75.68 118.31 75.1031C118.823 74.5262 119.472 74.0824 120.241 73.757C121.01 73.4315 121.87 73.2688 122.836 73.2688C123.726 73.2688 124.54 73.4315 125.249 73.7422C125.958 74.0528 126.577 74.4966 127.074 75.0439C127.572 75.5913 127.965 76.257 128.221 77.0262C128.477 77.7954 128.628 78.6238 128.628 79.5114C128.628 80.4581 128.493 81.3309 128.236 82.1297C127.98 82.9286 127.587 83.6386 127.074 84.2303C126.562 84.8221 125.943 85.2806 125.189 85.6209C124.435 85.9611 123.59 86.1238 122.609 86.1238V86.1386ZM122.7 74.3339C121.93 74.3339 121.252 74.4818 120.663 74.7629C120.075 75.0439 119.577 75.4434 119.17 75.9315C118.763 76.4197 118.461 76.9966 118.25 77.6475C118.038 78.2984 117.933 79.0084 117.933 79.7481C117.933 80.4581 118.023 81.1238 118.204 81.7747C118.385 82.4256 118.687 82.9877 119.064 83.4759C119.441 83.9641 119.939 84.3635 120.527 84.6593C121.116 84.9552 121.81 85.1031 122.594 85.1031C123.379 85.1031 124.073 84.97 124.676 84.7037C125.279 84.4374 125.777 84.0676 126.169 83.5795C126.562 83.0913 126.878 82.5292 127.074 81.8783C127.271 81.2274 127.376 80.5025 127.376 79.7185C127.376 78.9937 127.286 78.2984 127.105 77.6475C126.924 76.9966 126.652 76.4197 126.26 75.9315C125.868 75.4434 125.4 75.0587 124.812 74.7629C124.223 74.467 123.514 74.3339 122.685 74.3339H122.7Z" fill="white"/>
<path d="M132.096 84.4966V90.0143H130.965V77.0557H132.096V78.7569H132.126C132.458 78.1356 132.911 77.6622 133.469 77.3368C134.027 77.0114 134.661 76.8486 135.37 76.8486C135.943 76.8486 136.471 76.9522 136.924 77.1593C137.376 77.3664 137.768 77.6474 138.085 78.0321C138.402 78.4167 138.643 78.8605 138.809 79.4078C138.975 79.9551 139.066 80.5469 139.066 81.2125C139.066 81.9522 138.975 82.6179 138.779 83.2244C138.583 83.8309 138.326 84.3486 137.964 84.7776C137.602 85.2066 137.18 85.5469 136.682 85.7835C136.184 86.0202 135.611 86.1386 134.978 86.1386C133.71 86.1386 132.76 85.5912 132.126 84.4966H132.096ZM132.096 82.2332C132.096 82.6327 132.172 83.0173 132.307 83.3723C132.443 83.7273 132.639 84.038 132.881 84.3043C133.122 84.5705 133.424 84.7924 133.771 84.9403C134.118 85.0883 134.51 85.177 134.932 85.177C135.385 85.177 135.792 85.0883 136.154 84.896C136.516 84.7037 136.833 84.4374 137.089 84.0971C137.346 83.7569 137.542 83.3279 137.678 82.8398C137.814 82.3516 137.889 81.8043 137.889 81.1977C137.889 80.68 137.829 80.2066 137.693 79.7924C137.557 79.3782 137.376 79.0232 137.135 78.7273C136.893 78.4315 136.607 78.2096 136.275 78.0469C135.943 77.8841 135.551 77.8102 135.143 77.8102C134.676 77.8102 134.253 77.8989 133.876 78.0617C133.499 78.2244 133.182 78.4611 132.911 78.7569C132.639 79.0528 132.443 79.393 132.307 79.7924C132.172 80.1918 132.096 80.606 132.096 81.0498V82.2332Z" fill="white"/>
<path d="M141.891 81.6865C141.891 82.2339 141.966 82.722 142.117 83.151C142.268 83.58 142.464 83.9499 142.721 84.2457C142.977 84.5416 143.309 84.7783 143.686 84.941C144.063 85.1037 144.501 85.1777 144.968 85.1777C145.994 85.1777 146.945 84.8226 147.865 84.1274V85.222C147.005 85.8286 145.949 86.1392 144.712 86.1392C144.108 86.1392 143.55 86.0357 143.053 85.8286C142.555 85.6215 142.132 85.3256 141.785 84.9262C141.438 84.5268 141.167 84.0386 140.986 83.4617C140.805 82.8848 140.699 82.2191 140.699 81.4794C140.699 80.8138 140.805 80.1925 141.016 79.6303C141.227 79.0682 141.514 78.58 141.876 78.1658C142.238 77.7516 142.675 77.4262 143.173 77.1895C143.671 76.9528 144.229 76.8345 144.817 76.8345C145.406 76.8345 145.919 76.938 146.371 77.1303C146.824 77.3226 147.201 77.6185 147.503 77.9883C147.804 78.3581 148.031 78.8019 148.197 79.3345C148.363 79.867 148.438 80.4587 148.438 81.1244V81.6865H141.891ZM147.261 80.7102C147.246 79.7931 147.02 79.0682 146.582 78.5652C146.145 78.0623 145.557 77.796 144.787 77.796C144.41 77.796 144.048 77.8552 143.716 77.9883C143.384 78.1215 143.098 78.3138 142.856 78.5652C142.615 78.8167 142.404 79.1274 142.238 79.4824C142.072 79.8374 141.966 80.2516 141.891 80.6954H147.231L147.261 80.7102Z" fill="white"/>
<path d="M156.767 85.9173V80.799C156.767 78.7871 156.028 77.796 154.535 77.796C154.142 77.796 153.78 77.87 153.433 78.0327C153.086 78.1954 152.8 78.4025 152.558 78.6688C152.317 78.9351 152.121 79.2605 151.985 79.6303C151.849 80.0002 151.774 80.3996 151.774 80.8434V85.9173H150.643V77.0416H151.774V78.58H151.804C152.483 77.4114 153.494 76.8345 154.836 76.8345C155.832 76.8345 156.586 77.1451 157.099 77.7812C157.612 78.4173 157.883 79.3197 157.883 80.5179V85.9321H156.752L156.767 85.9173Z" fill="white"/>
<path d="M166.934 85.918H165.758V73.4919H166.934V85.918Z" fill="white"/>
<path d="M176.148 85.9173V80.799C176.148 78.7871 175.409 77.796 173.915 77.796C173.523 77.796 173.161 77.87 172.814 78.0327C172.467 78.1954 172.181 78.4025 171.939 78.6688C171.698 78.9351 171.502 79.2605 171.366 79.6303C171.23 80.0002 171.155 80.3996 171.155 80.8434V85.9173H170.023V77.0416H171.155V78.58H171.185C171.864 77.4114 172.875 76.8345 174.217 76.8345C175.213 76.8345 175.967 77.1451 176.48 77.7812C176.993 78.4173 177.264 79.3197 177.264 80.5179V85.9321H176.133L176.148 85.9173Z" fill="white"/>
<path d="M186.117 85.9173V80.799C186.117 78.7871 185.378 77.796 183.884 77.796C183.492 77.796 183.13 77.87 182.783 78.0327C182.436 78.1954 182.149 78.4025 181.908 78.6688C181.667 78.9351 181.471 79.2605 181.335 79.6303C181.199 80.0002 181.124 80.3996 181.124 80.8434V85.9173H179.992V77.0416H181.124V78.58H181.154C181.833 77.4114 182.843 76.8345 184.186 76.8345C185.182 76.8345 185.936 77.1451 186.449 77.7812C186.962 78.4173 187.233 79.3197 187.233 80.5179V85.9321H186.102L186.117 85.9173Z" fill="white"/>
<path d="M193.677 86.1244C192.998 86.1244 192.409 86.0209 191.866 85.799C191.323 85.5771 190.871 85.2664 190.494 84.867C190.116 84.4676 189.83 83.9794 189.634 83.4173C189.438 82.8552 189.332 82.2339 189.332 81.5534C189.332 80.8138 189.438 80.1481 189.649 79.5712C189.86 78.9942 190.162 78.4913 190.554 78.0919C190.946 77.6925 191.414 77.367 191.972 77.1599C192.53 76.9528 193.149 76.8345 193.827 76.8345C194.506 76.8345 195.064 76.938 195.592 77.1451C196.12 77.3522 196.558 77.6629 196.92 78.0623C197.282 78.4617 197.569 78.9499 197.765 79.512C197.961 80.0741 198.051 80.7398 198.051 81.4647C198.051 82.1895 197.946 82.796 197.75 83.3581C197.553 83.9203 197.252 84.4232 196.875 84.8226C196.498 85.222 196.045 85.5475 195.502 85.7694C194.959 85.9913 194.34 86.1096 193.661 86.1096L193.677 86.1244ZM193.767 77.796C193.269 77.796 192.832 77.8848 192.424 78.0475C192.017 78.2102 191.685 78.4617 191.399 78.7871C191.112 79.1126 190.901 79.4972 190.735 79.9706C190.569 80.4439 190.509 80.9617 190.509 81.5534C190.509 82.1155 190.584 82.6037 190.735 83.0475C190.886 83.4913 191.112 83.8759 191.384 84.1865C191.655 84.4972 192.002 84.7487 192.409 84.9262C192.817 85.1037 193.254 85.1777 193.752 85.1777C194.25 85.1777 194.702 85.0889 195.095 84.9262C195.487 84.7635 195.819 84.5268 196.09 84.2013C196.362 83.8759 196.573 83.5061 196.709 83.0475C196.844 82.5889 196.92 82.0712 196.92 81.4942C196.92 80.296 196.648 79.3789 196.105 78.7576C195.562 78.1363 194.793 77.8108 193.782 77.8108L193.767 77.796Z" fill="white"/>
<path d="M203.572 85.9168H202.501L199.031 77.041H200.283L202.787 83.8014C202.938 84.2156 203.044 84.5706 203.074 84.8813H203.104C203.18 84.4671 203.27 84.112 203.376 83.831L205.97 77.041H207.177L203.572 85.9168Z" fill="white"/>
<path d="M213.667 85.9167V84.3338H213.637C213.335 84.896 212.943 85.3398 212.43 85.6504C211.917 85.9611 211.344 86.1238 210.695 86.1238C210.258 86.1238 209.866 86.0646 209.519 85.9463C209.172 85.8279 208.87 85.6504 208.629 85.4285C208.387 85.2066 208.191 84.9403 208.055 84.6297C207.92 84.319 207.859 83.9788 207.859 83.5942C207.859 82.7954 208.116 82.1445 208.614 81.6711C209.111 81.1977 209.881 80.8871 210.907 80.7392L213.652 80.3545C213.652 78.6534 212.973 77.7954 211.631 77.7954C210.575 77.7954 209.594 78.18 208.689 78.9344V77.7214C208.87 77.5883 209.096 77.4699 209.323 77.3664C209.549 77.2628 209.82 77.1741 210.077 77.0853C210.333 76.9966 210.62 76.9522 210.892 76.9078C211.163 76.8634 211.45 76.8486 211.706 76.8486C212.717 76.8486 213.471 77.1297 213.984 77.677C214.497 78.2244 214.753 79.0528 214.753 80.1622V85.9315H213.622L213.667 85.9167ZM211.329 81.6119C210.922 81.6711 210.575 81.7451 210.288 81.8338C210.001 81.9226 209.76 82.0409 209.579 82.1889C209.398 82.3368 209.247 82.5143 209.157 82.7362C209.066 82.9581 209.021 83.2244 209.021 83.535C209.021 83.7717 209.066 83.9936 209.142 84.2007C209.217 84.4078 209.353 84.5705 209.519 84.7185C209.685 84.8664 209.881 84.9847 210.107 85.0587C210.333 85.1327 210.605 85.177 210.892 85.177C211.299 85.177 211.661 85.1031 211.993 84.9551C212.325 84.8072 212.626 84.6001 212.868 84.3338C213.109 84.0676 213.305 83.7569 213.441 83.3871C213.577 83.0173 213.652 82.6179 213.652 82.1889V81.3161L211.314 81.6415L211.329 81.6119Z" fill="white"/>
<path d="M221.408 85.8139C221.015 86.0062 220.593 86.0949 220.14 86.0949C218.677 86.0949 217.953 85.2665 217.953 83.6097V78.0032H216.369V77.0269H217.953V74.7932L219.084 74.4233V77.0269H221.423V78.0032H219.084V83.4322C219.084 84.0387 219.19 84.4677 219.386 84.734C219.582 85.0003 219.929 85.1334 220.397 85.1334C220.744 85.1334 221.091 85.0298 221.408 84.8227V85.7991V85.8139Z" fill="white"/>
<path d="M223.83 74.7928C223.619 74.7928 223.423 74.7188 223.257 74.5709C223.091 74.423 223.016 74.2307 223.016 73.994C223.016 73.7573 223.091 73.5798 223.257 73.4319C223.423 73.2839 223.604 73.21 223.83 73.21C223.936 73.21 224.041 73.2247 224.147 73.2691C224.253 73.3135 224.328 73.3579 224.403 73.4319C224.479 73.5058 224.539 73.5798 224.585 73.6833C224.63 73.7869 224.645 73.8904 224.645 73.994C224.645 74.0975 224.63 74.2011 224.585 74.3046C224.539 74.4082 224.479 74.4821 224.403 74.5561C224.328 74.6301 224.238 74.6892 224.147 74.7188C224.057 74.7484 223.936 74.778 223.83 74.778V74.7928ZM223.272 85.9171V77.0413H224.403V85.9171H223.272Z" fill="white"/>
<path d="M231.03 86.1244C230.351 86.1244 229.763 86.0209 229.22 85.799C228.677 85.5771 228.224 85.2664 227.847 84.867C227.47 84.4676 227.183 83.9794 226.987 83.4173C226.791 82.8552 226.686 82.2339 226.686 81.5534C226.686 80.8138 226.791 80.1481 227.002 79.5712C227.214 78.9942 227.515 78.4913 227.907 78.0919C228.3 77.6925 228.767 77.367 229.325 77.1599C229.884 76.9528 230.502 76.8345 231.181 76.8345C231.86 76.8345 232.418 76.938 232.946 77.1451C233.474 77.3522 233.911 77.6629 234.273 78.0623C234.635 78.4617 234.922 78.9499 235.118 79.512C235.314 80.0741 235.405 80.7398 235.405 81.4647C235.405 82.1895 235.299 82.796 235.103 83.3581C234.907 83.9203 234.605 84.4232 234.228 84.8226C233.851 85.222 233.398 85.5475 232.855 85.7694C232.312 85.9913 231.694 86.1096 231.015 86.1096L231.03 86.1244ZM231.121 77.796C230.623 77.796 230.185 77.8848 229.778 78.0475C229.371 78.2102 229.039 78.4617 228.752 78.7871C228.466 79.1126 228.254 79.4972 228.088 79.9706C227.923 80.4439 227.862 80.9617 227.862 81.5534C227.862 82.1155 227.938 82.6037 228.088 83.0475C228.239 83.4913 228.466 83.8759 228.737 84.1865C229.009 84.4972 229.356 84.7487 229.763 84.9262C230.17 85.1037 230.608 85.1777 231.106 85.1777C231.603 85.1777 232.056 85.0889 232.448 84.9262C232.84 84.7635 233.172 84.5268 233.444 84.2013C233.715 83.8759 233.926 83.5061 234.062 83.0475C234.198 82.5889 234.273 82.0712 234.273 81.4942C234.273 80.296 234.002 79.3789 233.459 78.7576C232.916 78.1363 232.146 77.8108 231.136 77.8108L231.121 77.796Z" fill="white"/>
<path d="M243.806 85.9173V80.799C243.806 78.7871 243.067 77.796 241.574 77.796C241.181 77.796 240.819 77.87 240.472 78.0327C240.125 78.1954 239.839 78.4025 239.597 78.6688C239.356 78.9351 239.16 79.2605 239.024 79.6303C238.888 80.0002 238.813 80.3996 238.813 80.8434V85.9173H237.682V77.0416H238.813V78.58H238.843C239.522 77.4114 240.533 76.8345 241.875 76.8345C242.871 76.8345 243.625 77.1451 244.138 77.7812C244.651 78.4173 244.923 79.3197 244.923 80.5179V85.9321H243.791L243.806 85.9173Z" fill="white"/>
<path d="M29.0365 58.7424H22.1426V28.698H29.0365V58.7424Z" fill="white"/>
<path d="M63.5543 58.7424H56.5849L43.9586 39.8666C43.2194 38.7572 42.7065 37.9288 42.4199 37.3666H42.3294C42.4501 38.4317 42.4953 40.0442 42.4953 42.2335V58.7424H35.9785V28.698H43.4155L55.5742 46.982C56.1324 47.8104 56.6453 48.624 57.1129 49.4376H57.2034C57.0828 48.7424 57.0375 47.3666 57.0375 45.3104V28.698H63.5543V58.7424Z" fill="white"/>
<path d="M98.1071 58.7424H91.1377L78.5113 39.8666C77.7722 38.7572 77.2593 37.9288 76.9726 37.3666H76.8821C77.0028 38.4317 77.0481 40.0442 77.0481 42.2335V58.7424H70.5312V28.698H77.9683L90.127 46.982C90.6851 47.8104 91.198 48.624 91.6657 49.4376H91.7562C91.6355 48.7424 91.5902 47.3666 91.5902 45.3104V28.698H98.1071V58.7424Z" fill="white"/>
<path d="M118.069 59.2599C113.68 59.2599 110.104 57.8546 107.344 55.0587C104.583 52.2629 103.195 48.609 103.195 44.112C103.195 39.3635 104.598 35.5173 107.404 32.5883C110.21 29.6593 113.921 28.1948 118.552 28.1948C122.927 28.1948 126.457 29.6002 129.157 32.4108C131.857 35.2215 133.2 38.9197 133.2 43.5055C133.2 48.0913 131.797 52.0262 129.006 54.9256C126.215 57.8102 122.565 59.2599 118.054 59.2599H118.069ZM118.371 34.0232C115.957 34.0232 114.027 34.9108 112.608 36.7007C111.19 38.4759 110.466 40.8428 110.466 43.7717C110.466 46.7007 111.175 49.0972 112.608 50.828C114.042 52.5587 115.897 53.4315 118.205 53.4315C120.513 53.4315 122.474 52.5883 123.862 50.9019C125.265 49.2155 125.959 46.8783 125.959 43.8901C125.959 40.9019 125.28 38.3575 123.922 36.6268C122.565 34.896 120.724 34.0232 118.371 34.0232Z" fill="white"/>
<path d="M136.892 57.5882V50.887C138.129 51.9077 139.472 52.6769 140.935 53.1799C142.398 53.6828 143.846 53.9491 145.34 53.9491C146.215 53.9491 146.969 53.8752 147.618 53.7124C148.266 53.5497 148.81 53.3426 149.247 53.0763C149.684 52.8101 150.001 52.4846 150.212 52.1148C150.424 51.745 150.529 51.3456 150.529 50.9166C150.529 50.3249 150.363 49.8071 150.016 49.3485C149.669 48.8899 149.202 48.461 148.613 48.0763C148.025 47.6917 147.316 47.3071 146.517 46.9521C145.717 46.597 144.827 46.2124 143.892 45.8426C141.493 44.8663 139.713 43.6681 138.536 42.2627C137.36 40.8574 136.771 39.1414 136.771 37.1444C136.771 35.5763 137.088 34.2302 137.737 33.1059C138.386 31.9817 139.245 31.0497 140.362 30.3249C141.463 29.6 142.745 29.0675 144.193 28.7272C145.642 28.387 147.18 28.2095 148.81 28.2095C150.439 28.2095 151.811 28.2982 153.048 28.4905C154.285 28.6828 155.417 28.9639 156.458 29.3633V35.6207C155.945 35.2657 155.387 34.9698 154.783 34.7036C154.18 34.4373 153.561 34.2154 152.913 34.0379C152.264 33.8604 151.63 33.7272 150.997 33.6533C150.363 33.5793 149.76 33.5349 149.187 33.5349C148.402 33.5349 147.693 33.6089 147.045 33.7568C146.411 33.9047 145.868 34.1118 145.415 34.3781C144.978 34.6444 144.631 34.955 144.39 35.3249C144.148 35.6947 144.027 36.1089 144.027 36.5675C144.027 37.0704 144.163 37.5142 144.435 37.9136C144.706 38.313 145.083 38.6828 145.581 39.0379C146.079 39.3929 146.682 39.7479 147.391 40.0882C148.1 40.4284 148.9 40.7834 149.805 41.1385C151.027 41.6414 152.128 42.174 153.109 42.7361C154.089 43.2982 154.919 43.9343 155.613 44.6592C156.307 45.3692 156.85 46.1828 157.212 47.1C157.574 48.0172 157.77 49.0823 157.77 50.2953C157.77 51.9669 157.453 53.3722 156.805 54.5112C156.156 55.6503 155.281 56.5675 154.165 57.2775C153.048 57.9876 151.766 58.4905 150.288 58.8012C148.809 59.1118 147.256 59.2598 145.627 59.2598C143.997 59.2598 142.353 59.1266 140.829 58.8456C139.321 58.5645 137.993 58.1503 136.892 57.5882Z" fill="white"/>
<path d="M184.338 34.2151H175.603V58.7417H168.679V34.2151H159.99V28.7122H184.338V34.2151Z" fill="white"/>
<path d="M212.097 58.7424H204.584L202.412 52.056H191.52L189.363 58.7424H181.881L193.029 28.698H201.205L212.097 58.7424ZM200.813 46.8637L197.524 36.7749C197.283 36.0205 197.117 35.1181 197.011 34.0678H196.845C196.77 34.9406 196.589 35.8134 196.317 36.6862L192.984 46.8637H200.828H200.813Z" fill="white"/>
<path d="M240.487 56.7303C237.5 58.4167 233.774 59.2599 229.339 59.2599C224.406 59.2599 220.529 57.9285 217.693 55.251C214.857 52.5735 213.424 48.8901 213.424 44.2007C213.424 39.5114 214.978 35.6357 218.085 32.6623C221.193 29.6889 225.326 28.1948 230.47 28.1948C233.713 28.1948 236.58 28.6386 239.054 29.5114V35.8575C236.685 34.5114 233.804 33.8457 230.38 33.8457C227.513 33.8457 225.19 34.7629 223.38 36.5824C221.585 38.4019 220.68 40.8428 220.68 43.8901C220.68 46.9374 221.494 49.3635 223.109 51.0499C224.723 52.7362 226.91 53.5794 229.656 53.5794C231.3 53.5794 232.612 53.3428 233.593 52.8842V47.0262H227.468V41.6268H240.502V56.7303H240.487Z" fill="white"/>
<path d="M264.821 58.7424H246.447V28.698H264.112V34.201H253.341V40.8873H263.358V46.3755H253.341V53.2394H264.806V58.7276L264.821 58.7424Z" fill="white"/>
<path d="M275.365 59.2598C274.248 59.2598 273.328 58.9196 272.589 58.2539C271.85 57.5883 271.473 56.7598 271.473 55.7835C271.473 54.8072 271.85 53.9492 272.619 53.3131C273.373 52.677 274.324 52.3516 275.47 52.3516C276.617 52.3516 277.567 52.677 278.306 53.3279C279.045 53.9788 279.407 54.7924 279.407 55.7835C279.407 56.7746 279.03 57.6326 278.291 58.2835C277.537 58.9344 276.571 59.2598 275.38 59.2598H275.365Z" fill="#5DC591"/>
<path d="M3.77148 66.198V3.698H296.229V66.198" stroke="white" stroke-width="5.17241" stroke-miterlimit="10"/>
</g>
<defs>
<clipPath id="clip0_1481_16389">
<rect width="300" height="90" fill="white"/>
</clipPath>
</defs>
</svg>
