<svg width="119" height="36" viewBox="0 0 119 36" fill="none" xmlns="http://www.w3.org/2000/svg">
<g clip-path="url(#clip0_1367_104573)">
<path d="M24.629 34.3671L22.5825 32.0417C22.5287 31.9766 22.4928 31.9293 22.4748 31.8997H22.4628V34.3671H21.9961V29.3967H22.4628V31.7399H22.4748C22.4748 31.7399 22.5107 31.6926 22.5287 31.6689C22.5466 31.6452 22.5646 31.6216 22.5885 31.5979L24.5452 29.4026H25.1376L22.9595 31.7991L25.2812 34.3731H24.629V34.3671Z" fill="#191919"/>
<path d="M27.4761 32.5089V34.3728H27.0094V32.5207L25.4297 29.4023H25.9563L27.1052 31.7278C27.1052 31.7278 27.1351 31.7988 27.159 31.852C27.1829 31.9053 27.2129 31.9763 27.2428 32.0651H27.2547C27.2667 32.0236 27.2907 31.9763 27.3146 31.9171C27.3385 31.858 27.3744 31.7988 27.4103 31.7278L28.6131 29.4023H29.1097L27.4702 32.5148L27.4761 32.5089Z" fill="#191919"/>
<path d="M31.7811 34.4555C31.4161 34.4555 31.0929 34.3905 30.8057 34.2603C30.5185 34.1301 30.2672 33.9526 30.0697 33.7218C29.8722 33.4911 29.7107 33.2307 29.603 32.923C29.4953 32.6153 29.4414 32.2899 29.4414 31.9348C29.4414 31.5443 29.4953 31.1893 29.603 30.8697C29.7107 30.5502 29.8722 30.2721 30.0757 30.0413C30.2791 29.8106 30.5364 29.6331 30.8416 29.5029C31.1468 29.3727 31.4879 29.3076 31.8708 29.3076C32.2239 29.3076 32.547 29.3727 32.8282 29.497C33.1095 29.6212 33.3548 29.7987 33.5523 30.0177C33.7497 30.2366 33.9053 30.5029 34.0071 30.8106C34.1088 31.1183 34.1686 31.4496 34.1686 31.8047C34.1686 32.1834 34.1148 32.5325 34.013 32.852C33.9113 33.1715 33.7557 33.4555 33.5523 33.6922C33.3488 33.9289 33.1035 34.1124 32.8043 34.2484C32.5051 34.3845 32.17 34.4496 31.7811 34.4496V34.4555ZM31.817 29.7337C31.5118 29.7337 31.2425 29.7928 31.0092 29.9053C30.7758 30.0177 30.5783 30.1774 30.4168 30.3727C30.2552 30.568 30.1355 30.7987 30.0518 31.0591C29.968 31.3195 29.9261 31.6035 29.9261 31.8993C29.9261 32.1834 29.962 32.4496 30.0338 32.71C30.1056 32.9703 30.2253 33.1952 30.3749 33.3905C30.5245 33.5857 30.7219 33.7455 30.9553 33.8638C31.1887 33.9822 31.4639 34.0413 31.7751 34.0413C32.0862 34.0413 32.3615 33.9881 32.6009 33.8816C32.8402 33.7751 33.0377 33.6271 33.1933 33.4319C33.3488 33.2366 33.4745 33.0118 33.5523 32.7514C33.6301 32.491 33.672 32.2011 33.672 31.8875C33.672 31.5976 33.6361 31.3195 33.5642 31.0591C33.4924 30.7987 33.3847 30.568 33.2292 30.3727C33.0736 30.1774 32.8881 30.0236 32.6547 29.9053C32.4213 29.7869 32.1401 29.7337 31.811 29.7337H31.817Z" fill="#191919"/>
<path d="M35.174 34.3671V29.3967H36.5502C36.7597 29.3967 36.9452 29.4263 37.1127 29.4796C37.2803 29.5328 37.4239 29.6157 37.5376 29.7163C37.6512 29.8168 37.747 29.9352 37.8068 30.0772C37.8667 30.2192 37.9026 30.3731 37.9026 30.5447C37.9026 30.6867 37.8846 30.8228 37.8427 30.947C37.8008 31.0713 37.747 31.1837 37.6692 31.2902C37.5914 31.3967 37.5017 31.4796 37.3939 31.5565C37.2862 31.6334 37.1606 31.6926 37.0229 31.734V31.7458C37.1905 31.7636 37.3461 31.805 37.4837 31.8701C37.6213 31.9352 37.741 32.018 37.8367 32.1245C37.9325 32.231 38.0103 32.3494 38.0641 32.4914C38.118 32.6334 38.1419 32.7873 38.1419 32.9529C38.1419 33.166 38.106 33.3553 38.0282 33.5328C37.9504 33.7103 37.8427 33.8583 37.7051 33.9825C37.5675 34.1068 37.3999 34.2074 37.2084 34.2784C37.017 34.3494 36.8075 34.3849 36.5742 34.3849H35.168L35.174 34.3671ZM35.6407 29.8168V31.5802H36.2929C36.4665 31.5802 36.616 31.5565 36.7537 31.5151C36.8913 31.4737 37.011 31.4086 37.1067 31.3257C37.2025 31.2429 37.2803 31.1423 37.3341 31.0239C37.388 30.9056 37.4119 30.7754 37.4119 30.6275C37.4119 30.089 37.0708 29.8168 36.3946 29.8168H35.6347H35.6407ZM35.6407 32.0003V33.947H36.5083C36.8793 33.947 37.1666 33.8583 37.364 33.6867C37.5615 33.5151 37.6632 33.2725 37.6632 32.9529C37.6632 32.3139 37.2264 31.9944 36.3468 31.9944H35.6407V32.0003Z" fill="#191919"/>
<path d="M41.2283 34.4555C40.8633 34.4555 40.5402 34.3905 40.253 34.2603C39.9658 34.1301 39.7144 33.9526 39.517 33.7218C39.3195 33.4911 39.1579 33.2307 39.0502 32.923C38.9425 32.6153 38.8887 32.2899 38.8887 31.9348C38.8887 31.5443 38.9425 31.1893 39.0502 30.8697C39.1579 30.5502 39.3195 30.2721 39.523 30.0413C39.7264 29.8106 39.9837 29.6331 40.2889 29.5029C40.5941 29.3727 40.9351 29.3076 41.3181 29.3076C41.6711 29.3076 41.9943 29.3727 42.2755 29.497C42.5567 29.6212 42.8021 29.7987 42.9995 30.0177C43.197 30.2366 43.3526 30.5029 43.4543 30.8106C43.556 31.1183 43.6159 31.4496 43.6159 31.8047C43.6159 32.1834 43.562 32.5325 43.4603 32.852C43.3586 33.1715 43.203 33.4555 42.9995 33.6922C42.7961 33.9289 42.5508 34.1124 42.2516 34.2484C41.9524 34.3845 41.6173 34.4496 41.2283 34.4496V34.4555ZM41.2642 29.7337C40.9591 29.7337 40.6898 29.7928 40.4564 29.9053C40.2231 30.0177 40.0256 30.1774 39.864 30.3727C39.7025 30.568 39.5828 30.7987 39.499 31.0591C39.4152 31.3195 39.3734 31.6035 39.3734 31.8993C39.3734 32.1834 39.4093 32.4496 39.4811 32.71C39.5529 32.9703 39.6726 33.1952 39.8221 33.3905C39.9717 33.5857 40.1692 33.7455 40.4026 33.8638C40.6359 33.9822 40.9112 34.0413 41.2224 34.0413C41.5335 34.0413 41.8088 33.9881 42.0481 33.8816C42.2875 33.7751 42.4849 33.6271 42.6405 33.4319C42.7961 33.2366 42.9218 33.0118 42.9995 32.7514C43.0773 32.491 43.1192 32.2011 43.1192 31.8875C43.1192 31.5976 43.0833 31.3195 43.0115 31.0591C42.9397 30.7987 42.832 30.568 42.6764 30.3727C42.5208 30.1774 42.3353 30.0236 42.102 29.9053C41.8686 29.7869 41.5874 29.7337 41.2583 29.7337H41.2642Z" fill="#191919"/>
<path d="M48.6365 34.4555C48.2715 34.4555 47.9484 34.3905 47.6612 34.2603C47.374 34.1301 47.1226 33.9526 46.9252 33.7218C46.7277 33.4911 46.5661 33.2307 46.4584 32.923C46.3507 32.6153 46.2969 32.2899 46.2969 31.9348C46.2969 31.5443 46.3507 31.1893 46.4584 30.8697C46.5661 30.5502 46.7277 30.2721 46.9312 30.0413C47.1346 29.8106 47.3919 29.6331 47.6971 29.5029C48.0023 29.3727 48.3433 29.3076 48.7263 29.3076C49.0793 29.3076 49.4025 29.3727 49.6837 29.497C49.9649 29.6212 50.2103 29.7987 50.4077 30.0177C50.6052 30.2366 50.7608 30.5029 50.8625 30.8106C50.9642 31.1183 51.0241 31.4496 51.0241 31.8047C51.0241 32.1834 50.9702 32.5325 50.8685 32.852C50.7668 33.1715 50.6112 33.4555 50.4077 33.6922C50.2043 33.9289 49.959 34.1124 49.6598 34.2484C49.3606 34.3845 49.0255 34.4496 48.6365 34.4496V34.4555ZM48.6724 29.7337C48.3673 29.7337 48.098 29.7928 47.8646 29.9053C47.6313 30.0177 47.4338 30.1774 47.2722 30.3727C47.1107 30.568 46.991 30.7987 46.9072 31.0591C46.8234 31.3195 46.7816 31.6035 46.7816 31.8993C46.7816 32.1834 46.8175 32.4496 46.8893 32.71C46.9611 32.9703 47.0808 33.1952 47.2303 33.3905C47.3799 33.5857 47.5774 33.7455 47.8108 33.8638C48.0441 33.9822 48.3194 34.0413 48.6306 34.0413C48.9417 34.0413 49.217 33.9881 49.4563 33.8816C49.6957 33.7751 49.8931 33.6271 50.0487 33.4319C50.2043 33.2366 50.33 33.0118 50.4077 32.7514C50.4855 32.491 50.5274 32.2011 50.5274 31.8875C50.5274 31.5976 50.4915 31.3195 50.4197 31.0591C50.3479 30.7987 50.2402 30.568 50.0846 30.3727C49.929 30.1774 49.7435 30.0236 49.5102 29.9053C49.2768 29.7869 48.9956 29.7337 48.6665 29.7337H48.6724Z" fill="#191919"/>
<path d="M52.4 33.7987V36.0058H51.9512V30.8223H52.4V31.5028H52.4119C52.5436 31.2543 52.7231 31.0649 52.9445 30.9348C53.1659 30.8046 53.4172 30.7395 53.6984 30.7395C53.9258 30.7395 54.1353 30.7809 54.3148 30.8638C54.4943 30.9466 54.6499 31.059 54.7755 31.2129C54.9012 31.3667 54.9969 31.5442 55.0628 31.7632C55.1286 31.9821 55.1645 32.2188 55.1645 32.4851C55.1645 32.7809 55.1286 33.0472 55.0508 33.2898C54.973 33.5324 54.8713 33.7395 54.7277 33.9111C54.584 34.0827 54.4165 34.2188 54.219 34.3135C54.0216 34.4081 53.7942 34.4555 53.5429 34.4555C53.0402 34.4555 52.6632 34.2365 52.4119 33.7987H52.4ZM52.4 32.8933C52.4 33.0531 52.4299 33.207 52.4837 33.349C52.5376 33.491 52.6154 33.6152 52.7111 33.7218C52.8069 33.8283 52.9265 33.917 53.0642 33.9762C53.2018 34.0354 53.3574 34.0709 53.5249 34.0709C53.7044 34.0709 53.866 34.0354 54.0096 33.9584C54.1532 33.8815 54.2789 33.775 54.3806 33.6389C54.4823 33.5028 54.5601 33.3312 54.614 33.136C54.6678 32.9407 54.6977 32.7217 54.6977 32.4791C54.6977 32.272 54.6738 32.0827 54.6199 31.917C54.5661 31.7513 54.4943 31.6093 54.3986 31.491C54.3028 31.3726 54.1891 31.2839 54.0575 31.2188C53.9258 31.1537 53.7702 31.1241 53.6087 31.1241C53.4232 31.1241 53.2556 31.1596 53.106 31.2247C52.9565 31.2898 52.8308 31.3845 52.7231 31.5028C52.6154 31.6212 52.5376 31.7573 52.4837 31.917C52.4299 32.0768 52.4 32.2425 52.4 32.42V32.8933Z" fill="#191919"/>
<path d="M56.2852 32.6745C56.2852 32.8934 56.3151 33.0887 56.375 33.2603C56.4348 33.4319 56.5126 33.5798 56.6143 33.6981C56.7161 33.8165 56.8477 33.9112 56.9973 33.9762C57.1469 34.0413 57.3204 34.0709 57.5059 34.0709C57.9128 34.0709 58.2898 33.9289 58.6548 33.6508V34.0887C58.3137 34.3313 57.8949 34.4555 57.4042 34.4555C57.1648 34.4555 56.9434 34.4141 56.746 34.3313C56.5485 34.2484 56.381 34.1301 56.2433 33.9703C56.1057 33.8106 55.998 33.6153 55.9262 33.3845C55.8544 33.1538 55.8125 32.8875 55.8125 32.5916C55.8125 32.3254 55.8544 32.0768 55.9382 31.852C56.0219 31.6271 56.1356 31.4319 56.2792 31.2662C56.4229 31.1005 56.5964 30.9703 56.7938 30.8757C56.9913 30.781 57.2127 30.7336 57.4461 30.7336C57.6795 30.7336 57.8829 30.7751 58.0624 30.852C58.2419 30.9289 58.3915 31.0473 58.5112 31.1952C58.6309 31.3431 58.7206 31.5206 58.7865 31.7336C58.8523 31.9467 58.8822 32.1833 58.8822 32.4496V32.6745H56.2852ZM58.4155 32.2839C58.4095 31.9171 58.3197 31.6271 58.1462 31.426C57.9727 31.2248 57.7393 31.1183 57.4341 31.1183C57.2845 31.1183 57.1409 31.1419 57.0093 31.1952C56.8776 31.2484 56.7639 31.3254 56.6682 31.426C56.5724 31.5265 56.4887 31.6508 56.4229 31.7928C56.357 31.9348 56.3151 32.1005 56.2852 32.278H58.4035L58.4155 32.2839Z" fill="#191919"/>
<path d="M62.1833 34.3668V32.3194C62.1833 31.5147 61.8901 31.1183 61.2977 31.1183C61.1422 31.1183 60.9985 31.1478 60.8609 31.2129C60.7233 31.278 60.6096 31.3609 60.5138 31.4674C60.4181 31.5739 60.3403 31.7041 60.2865 31.852C60.2326 31.9999 60.2027 32.1597 60.2027 32.3372V34.3668H59.7539V30.8165H60.2027V31.4319H60.2147C60.4839 30.9644 60.8848 30.7336 61.4174 30.7336C61.8123 30.7336 62.1115 30.8579 62.315 31.1123C62.5184 31.3668 62.6261 31.7277 62.6261 32.207V34.3727H62.1774L62.1833 34.3668Z" fill="#191919"/>
<path d="M66.2167 34.3671H65.75V29.3967H66.2167V34.3671Z" fill="#191919"/>
<path d="M69.8728 34.3668V32.3194C69.8728 31.5147 69.5796 31.1183 68.9872 31.1183C68.8316 31.1183 68.688 31.1478 68.5504 31.2129C68.4127 31.278 68.299 31.3609 68.2033 31.4674C68.1076 31.5739 68.0298 31.7041 67.9759 31.852C67.9221 31.9999 67.8921 32.1597 67.8921 32.3372V34.3668H67.4434V30.8165H67.8921V31.4319H67.9041C68.1734 30.9644 68.5743 30.7336 69.1069 30.7336C69.5018 30.7336 69.801 30.8579 70.0044 31.1123C70.2079 31.3668 70.3156 31.7277 70.3156 32.207V34.3727H69.8668L69.8728 34.3668Z" fill="#191919"/>
<path d="M73.8279 34.3668V32.3194C73.8279 31.5147 73.5347 31.1183 72.9423 31.1183C72.7867 31.1183 72.6431 31.1478 72.5054 31.2129C72.3678 31.278 72.2541 31.3609 72.1584 31.4674C72.0626 31.5739 71.9849 31.7041 71.931 31.852C71.8771 31.9999 71.8472 32.1597 71.8472 32.3372V34.3668H71.3984V30.8165H71.8472V31.4319H71.8592C72.1285 30.9644 72.5294 30.7336 73.0619 30.7336C73.4569 30.7336 73.7561 30.8579 73.9595 31.1123C74.163 31.3668 74.2707 31.7277 74.2707 32.207V34.3727H73.8219L73.8279 34.3668Z" fill="#191919"/>
<path d="M76.8249 34.4496C76.5556 34.4496 76.3223 34.4082 76.1068 34.3194C75.8914 34.2307 75.7119 34.1064 75.5623 33.9467C75.4127 33.7869 75.299 33.5916 75.2212 33.3668C75.1434 33.1419 75.1016 32.8934 75.1016 32.6212C75.1016 32.3254 75.1434 32.0591 75.2272 31.8283C75.311 31.5975 75.4307 31.3964 75.5862 31.2366C75.7418 31.0768 75.9273 30.9467 76.1487 30.8638C76.3701 30.781 76.6155 30.7336 76.8847 30.7336C77.154 30.7336 77.3754 30.7751 77.5848 30.8579C77.7943 30.9407 77.9678 31.065 78.1114 31.2248C78.255 31.3845 78.3687 31.5798 78.4465 31.8046C78.5243 32.0295 78.5602 32.2958 78.5602 32.5857C78.5602 32.8757 78.5183 33.1183 78.4405 33.3431C78.3627 33.568 78.2431 33.7691 78.0935 33.9289C77.9439 34.0887 77.7644 34.2188 77.5489 34.3076C77.3335 34.3964 77.0882 34.4437 76.8189 34.4437L76.8249 34.4496ZM76.8608 31.1183C76.6633 31.1183 76.4898 31.1538 76.3282 31.2188C76.1667 31.2839 76.035 31.3845 75.9213 31.5147C75.8076 31.6449 75.7239 31.7987 75.6581 31.9881C75.5922 32.1774 75.5683 32.3845 75.5683 32.6212C75.5683 32.8461 75.5982 33.0413 75.6581 33.2188C75.7179 33.3964 75.8077 33.5502 75.9154 33.6745C76.0231 33.7987 76.1607 33.8993 76.3223 33.9703C76.4838 34.0413 76.6574 34.0709 76.8548 34.0709C77.0523 34.0709 77.2318 34.0354 77.3874 33.9703C77.543 33.9052 77.6746 33.8106 77.7823 33.6804C77.89 33.5502 77.9738 33.4023 78.0276 33.2188C78.0815 33.0354 78.1114 32.8283 78.1114 32.5975C78.1114 32.1183 78.0037 31.7514 77.7883 31.5029C77.5729 31.2544 77.2677 31.1242 76.8668 31.1242L76.8608 31.1183Z" fill="#191919"/>
<path d="M80.7503 34.3667H80.3255L78.9492 30.8164H79.4459L80.4392 33.5205C80.499 33.6862 80.5409 33.8282 80.5529 33.9525H80.5648C80.5948 33.7868 80.6307 33.6448 80.6726 33.5324L81.7018 30.8164H82.1805L80.7503 34.3667Z" fill="#191919"/>
<path d="M84.7549 34.3667V33.7336H84.743C84.6233 33.9584 84.4677 34.136 84.2643 34.2602C84.0608 34.3845 83.8334 34.4496 83.5761 34.4496C83.4026 34.4496 83.247 34.4259 83.1094 34.3786C82.9718 34.3312 82.8521 34.2602 82.7564 34.1715C82.6606 34.0827 82.5828 33.9762 82.529 33.8519C82.4751 33.7277 82.4512 33.5916 82.4512 33.4377C82.4512 33.1182 82.5529 32.8578 82.7504 32.6685C82.9478 32.4791 83.253 32.3549 83.6599 32.2957L84.749 32.1419C84.749 31.4614 84.4797 31.1182 83.9471 31.1182C83.5283 31.1182 83.1393 31.272 82.7803 31.5738V31.0886C82.8521 31.0354 82.9418 30.988 83.0316 30.9466C83.1214 30.9052 83.2291 30.8697 83.3308 30.8342C83.4325 30.7987 83.5462 30.7809 83.6539 30.7632C83.7616 30.7454 83.8753 30.7395 83.977 30.7395C84.378 30.7395 84.6772 30.8519 84.8806 31.0709C85.0841 31.2898 85.1858 31.6212 85.1858 32.0649V34.3726H84.737L84.7549 34.3667ZM83.8274 32.6448C83.6659 32.6685 83.5283 32.6981 83.4146 32.7336C83.3009 32.7691 83.2051 32.8164 83.1333 32.8756C83.0615 32.9348 83.0017 33.0058 82.9658 33.0945C82.9299 33.1833 82.9119 33.2898 82.9119 33.4141C82.9119 33.5087 82.9299 33.5975 82.9598 33.6803C82.9897 33.7632 83.0436 33.8283 83.1094 33.8874C83.1752 33.9466 83.253 33.9939 83.3428 34.0235C83.4325 34.0531 83.5402 34.0709 83.6539 34.0709C83.8155 34.0709 83.9591 34.0413 84.0907 33.9821C84.2224 33.9229 84.3421 33.8401 84.4378 33.7336C84.5335 33.6271 84.6113 33.5028 84.6652 33.3549C84.719 33.207 84.749 33.0472 84.749 32.8756V32.5265L83.8215 32.6567L83.8274 32.6448Z" fill="#191919"/>
<path d="M87.8248 34.3255C87.6692 34.4024 87.5016 34.4379 87.3221 34.4379C86.7417 34.4379 86.4545 34.1066 86.4545 33.4438V31.2012H85.8262V30.8107H86.4545V29.9172L86.9033 29.7693V30.8107H87.8308V31.2012H86.9033V33.3728C86.9033 33.6154 86.9451 33.787 87.0229 33.8935C87.1007 34.0001 87.2384 34.0533 87.4239 34.0533C87.5615 34.0533 87.6991 34.0119 87.8248 33.929V34.3196V34.3255Z" fill="#191919"/>
<path d="M88.786 29.9171C88.7022 29.9171 88.6245 29.8875 88.5586 29.8283C88.4928 29.7691 88.4629 29.6922 88.4629 29.5975C88.4629 29.5029 88.4928 29.4319 88.5586 29.3727C88.6245 29.3135 88.6963 29.2839 88.786 29.2839C88.8279 29.2839 88.8698 29.2899 88.9117 29.3076C88.9536 29.3254 88.9835 29.3431 89.0134 29.3727C89.0433 29.4023 89.0673 29.4319 89.0852 29.4733C89.1032 29.5147 89.1091 29.5561 89.1091 29.5975C89.1091 29.639 89.1032 29.6804 89.0852 29.7218C89.0673 29.7632 89.0433 29.7928 89.0134 29.8224C88.9835 29.852 88.9476 29.8756 88.9117 29.8875C88.8758 29.8993 88.8279 29.9112 88.786 29.9112V29.9171ZM88.5646 34.3668V30.8165H89.0134V34.3668H88.5646Z" fill="#191919"/>
<path d="M91.6433 34.4496C91.374 34.4496 91.1406 34.4082 90.9252 34.3194C90.7098 34.2307 90.5303 34.1064 90.3807 33.9467C90.2311 33.7869 90.1174 33.5916 90.0396 33.3668C89.9618 33.1419 89.9199 32.8934 89.9199 32.6212C89.9199 32.3254 89.9618 32.0591 90.0456 31.8283C90.1294 31.5975 90.249 31.3964 90.4046 31.2366C90.5602 31.0768 90.7457 30.9467 90.9671 30.8638C91.1885 30.781 91.4338 30.7336 91.7031 30.7336C91.9724 30.7336 92.1938 30.7751 92.4032 30.8579C92.6126 30.9407 92.7862 31.065 92.9298 31.2248C93.0734 31.3845 93.1871 31.5798 93.2649 31.8046C93.3427 32.0295 93.3786 32.2958 93.3786 32.5857C93.3786 32.8757 93.3367 33.1183 93.2589 33.3431C93.1811 33.568 93.0614 33.7691 92.9118 33.9289C92.7622 34.0887 92.5827 34.2188 92.3673 34.3076C92.1519 34.3964 91.9065 34.4437 91.6373 34.4437L91.6433 34.4496ZM91.6792 31.1183C91.4817 31.1183 91.3082 31.1538 91.1466 31.2188C90.985 31.2839 90.8534 31.3845 90.7397 31.5147C90.626 31.6449 90.5422 31.7987 90.4764 31.9881C90.4106 32.1774 90.3867 32.3845 90.3867 32.6212C90.3867 32.8461 90.4166 33.0413 90.4764 33.2188C90.5362 33.3964 90.626 33.5502 90.7337 33.6745C90.8414 33.7987 90.9791 33.8993 91.1406 33.9703C91.3022 34.0413 91.4757 34.0709 91.6732 34.0709C91.8706 34.0709 92.0502 34.0354 92.2057 33.9703C92.3613 33.9052 92.493 33.8106 92.6007 33.6804C92.7084 33.5502 92.7921 33.4023 92.846 33.2188C92.8999 33.0354 92.9298 32.8283 92.9298 32.5975C92.9298 32.1183 92.8221 31.7514 92.6066 31.5029C92.3912 31.2544 92.0861 31.1242 91.6851 31.1242L91.6792 31.1183Z" fill="#191919"/>
<path d="M96.7107 34.3668V32.3194C96.7107 31.5147 96.4175 31.1183 95.8251 31.1183C95.6695 31.1183 95.5259 31.1478 95.3883 31.2129C95.2506 31.278 95.1369 31.3609 95.0412 31.4674C94.9455 31.5739 94.8677 31.7041 94.8138 31.852C94.76 31.9999 94.73 32.1597 94.73 32.3372V34.3668H94.2812V30.8165H94.73V31.4319H94.742C95.0113 30.9644 95.4122 30.7336 95.9447 30.7336C96.3397 30.7336 96.6389 30.8579 96.8423 31.1123C97.0458 31.3668 97.1535 31.7277 97.1535 32.207V34.3727H96.7047L96.7107 34.3668Z" fill="#191919"/>
<path d="M11.5178 23.497H8.7832V11.4792H11.5178V23.497Z" fill="#191919"/>
<path d="M25.2099 23.497H22.4454L17.4369 15.9467C17.1437 15.5029 16.9403 15.1716 16.8266 14.9467H16.7907C16.8385 15.3727 16.8565 16.0177 16.8565 16.8934V23.497H14.2715V11.4792H17.2215L22.0445 18.7929C22.2659 19.1242 22.4693 19.4497 22.6548 19.7751H22.6907C22.6428 19.497 22.6249 18.9467 22.6249 18.1242V11.4792H25.2099V23.497Z" fill="#191919"/>
<path d="M38.9169 23.497H36.1524L31.144 15.9467C30.8507 15.5029 30.6473 15.1716 30.5336 14.9467H30.4977C30.5456 15.3727 30.5635 16.0177 30.5635 16.8934V23.497H27.9785V11.4792H30.9285L35.7515 18.7929C35.9729 19.1242 36.1763 19.4497 36.3618 19.7751H36.3977C36.3499 19.497 36.3319 18.9467 36.3319 18.1242V11.4792H38.9169V23.497Z" fill="#191919"/>
<path d="M46.8336 23.7041C45.0923 23.7041 43.6742 23.142 42.5791 22.0236C41.4841 20.9053 40.9336 19.4438 40.9336 17.6449C40.9336 15.7455 41.4901 14.2071 42.6031 13.0355C43.7161 11.8639 45.1881 11.2781 47.0251 11.2781C48.7604 11.2781 50.1606 11.8402 51.2317 12.9645C52.3028 14.0887 52.8354 15.568 52.8354 17.4023C52.8354 19.2367 52.2789 20.8106 51.1719 21.9704C50.0649 23.1242 48.6168 23.7041 46.8276 23.7041H46.8336ZM46.9533 13.6094C45.9959 13.6094 45.23 13.9645 44.6675 14.6804C44.105 15.3905 43.8178 16.3372 43.8178 17.5088C43.8178 18.6804 44.099 19.639 44.6675 20.3313C45.236 21.0236 45.972 21.3727 46.8875 21.3727C47.803 21.3727 48.5809 21.0355 49.1314 20.3609C49.6879 19.6864 49.9632 18.7514 49.9632 17.5562C49.9632 16.3609 49.6939 15.3432 49.1553 14.6509C48.6168 13.9585 47.8868 13.6094 46.9533 13.6094Z" fill="#191919"/>
<path d="M54.3018 23.0354V20.3549C54.7925 20.7632 55.325 21.0709 55.9054 21.2721C56.4859 21.4733 57.0603 21.5798 57.6527 21.5798C57.9998 21.5798 58.299 21.5502 58.5563 21.4851C58.8136 21.42 59.029 21.3372 59.2025 21.2307C59.376 21.1242 59.5017 20.994 59.5855 20.8461C59.6693 20.6981 59.7111 20.5384 59.7111 20.3668C59.7111 20.1301 59.6453 19.923 59.5077 19.7396C59.3701 19.5561 59.1846 19.3845 58.9512 19.2307C58.7178 19.0768 58.4366 18.923 58.1194 18.781C57.8023 18.639 57.4493 18.4851 57.0783 18.3372C56.1268 17.9467 55.4207 17.4674 54.954 16.9052C54.4873 16.3431 54.2539 15.6567 54.2539 14.8579C54.2539 14.2307 54.3796 13.6922 54.6369 13.2425C54.8942 12.7928 55.2353 12.42 55.6781 12.1301C56.1149 11.8401 56.6235 11.6271 57.1979 11.491C57.7724 11.3549 58.3827 11.2839 59.029 11.2839C59.6752 11.2839 60.2198 11.3194 60.7104 11.3964C61.2011 11.4733 61.6499 11.5857 62.0628 11.7455V14.2484C61.8593 14.1064 61.6379 13.9881 61.3986 13.8816C61.1592 13.7751 60.9139 13.6863 60.6566 13.6153C60.3993 13.5443 60.148 13.491 59.8966 13.4615C59.6453 13.4319 59.406 13.4141 59.1786 13.4141C58.8674 13.4141 58.5862 13.4437 58.3289 13.5029C58.0776 13.562 57.8621 13.6449 57.6826 13.7514C57.5091 13.8579 57.3715 13.9822 57.2757 14.1301C57.18 14.278 57.1321 14.4437 57.1321 14.6271C57.1321 14.8283 57.186 15.0058 57.2937 15.1656C57.4014 15.3254 57.551 15.4733 57.7485 15.6153C57.9459 15.7573 58.1853 15.8993 58.4665 16.0354C58.7477 16.1715 59.0649 16.3135 59.4239 16.4555C59.9086 16.6567 60.3454 16.8697 60.7344 17.0946C61.1233 17.3194 61.4524 17.5739 61.7277 17.8638C62.0029 18.1478 62.2184 18.4733 62.362 18.8401C62.5056 19.207 62.5834 19.633 62.5834 20.1183C62.5834 20.7869 62.4577 21.349 62.2004 21.8046C61.9431 22.2603 61.596 22.6271 61.1532 22.9112C60.7104 23.1952 60.2018 23.3964 59.6154 23.5206C59.029 23.6449 58.4127 23.7041 57.7664 23.7041C57.1202 23.7041 56.4679 23.6508 55.8636 23.5384C55.2652 23.4259 54.7386 23.2603 54.3018 23.0354Z" fill="#191919"/>
<path d="M73.1208 13.686H69.6561V23.4967H66.9096V13.686H63.4629V11.4849H73.1208V13.686Z" fill="#191919"/>
<path d="M84.1321 23.497H81.1521L80.2904 20.8224H75.9701L75.1145 23.497H72.1465L76.5685 11.4792H79.8117L84.1321 23.497ZM79.6562 18.7455L78.3517 14.71C78.256 14.4082 78.1901 14.0473 78.1482 13.6272H78.0824C78.0525 13.9763 77.9807 14.3254 77.873 14.6745L76.5506 18.7455H79.6622H79.6562Z" fill="#191919"/>
<path d="M95.3932 22.6923C94.2084 23.3668 92.7304 23.7041 90.9711 23.7041C89.0144 23.7041 87.4766 23.1716 86.3516 22.1006C85.2267 21.0296 84.6582 19.5562 84.6582 17.6804C84.6582 15.8047 85.2745 14.2544 86.5072 13.0651C87.7399 11.8757 89.3794 11.2781 91.4199 11.2781C92.7064 11.2781 93.8434 11.4556 94.8247 11.8047V14.3432C93.8852 13.8047 92.7423 13.5384 91.384 13.5384C90.2471 13.5384 89.3256 13.9053 88.6075 14.6331C87.8954 15.3609 87.5364 16.3372 87.5364 17.5562C87.5364 18.7751 87.8595 19.7455 88.4998 20.4201C89.1401 21.0946 90.0077 21.4319 91.0968 21.4319C91.749 21.4319 92.2696 21.3372 92.6586 21.1538V18.8106H90.2291V16.6509H95.3991V22.6923H95.3932Z" fill="#191919"/>
<path d="M105.046 23.497H97.7578V11.4792H104.765V13.6804H100.492V16.355H104.466V18.5503H100.492V21.2958H105.04V23.4911L105.046 23.497Z" fill="#191919"/>
<path d="M109.037 23.7055C108.649 23.7055 108.329 23.5694 108.072 23.3031C107.815 23.0368 107.684 22.7055 107.684 22.3149C107.684 21.9244 107.815 21.5812 108.082 21.3268C108.345 21.0723 108.675 20.9421 109.074 20.9421C109.473 20.9421 109.803 21.0723 110.061 21.3327C110.318 21.593 110.444 21.9185 110.444 22.3149C110.444 22.7114 110.312 23.0546 110.055 23.3149C109.793 23.5753 109.457 23.7055 109.043 23.7055H109.037Z" fill="#5DC591"/>
<path d="M1.49609 26.4792V1.47925H117.504V26.4792" stroke="#191919" stroke-width="3" stroke-miterlimit="10"/>
</g>
<defs>
<clipPath id="clip0_1367_104573">
<rect width="119" height="36" fill="white"/>
</clipPath>
</defs>
</svg>
